<svg xmlns="http://www.w3.org/2000/svg" viewBox="0 0 32 32">
<path fill="#25d366" d="M16 .5C7.45.5.5 7.45.5 16c0 2.83.74 5.55 2.14 7.96L.51 31.5l7.74-2.04A15.45 15.45 0 0 0 16 31.5c8.55 0 15.5-6.95 15.5-15.5S24.55.5 16 .5z"/>
<path fill="#fff" d="M24.27 19.74c-.39-.2-2.31-1.14-2.67-1.27-.36-.13-.62-.2-.88.2-.26.39-1.01 1.27-1.24 1.53-.23.26-.46.29-.85.1-.39-.2-1.64-.61-3.12-1.94-1.15-1.03-1.93-2.31-2.16-2.7-.23-.39-.02-.6.17-.79.18-.18.39-.46.58-.69.19-.23.26-.39.39-.65.13-.26.07-.49-.03-.69-.1-.2-.88-2.13-1.21-2.92-.32-.77-.65-.67-.88-.68h-.75c-.26 0-.68.1-1.04.49-.36.39-1.37 1.34-1.37 3.27s1.4 3.78 1.59 4.04c.2.26 2.76 4.21 6.69 5.9.94.41 1.68.65 2.25.83.94.3 1.8.26 2.48.16.76-.11 2.31-.94 2.64-1.84.33-.9.33-1.67.23-1.84-.1-.17-.36-.27-.75-.46z"/>
</svg>